<svg xmlns="http://www.w3.org/2000/svg" xmlns:xlink="http://www.w3.org/1999/xlink" width="500" zoomAndPan="magnify" viewBox="0 0 375 374.999991" height="500" preserveAspectRatio="xMidYMid meet" version="1.0"><defs><g/></defs><rect x="-37.5" width="450" fill="#ffffff" y="-37.499999" height="449.999989" fill-opacity="1"/><rect x="-37.5" width="450" fill="#1e3653" y="-37.499999" height="449.999989" fill-opacity="1"/><g fill="#e1a730" fill-opacity="1"><g transform="translate(38.039065, 203.625647)"><g><path d="M 34.84375 -9.75 C 34.84375 -9.1875 34.582031 -8.90625 34.0625 -8.90625 L 25.03125 -8.90625 C 24.675781 -8.90625 24.378906 -8.976562 24.140625 -9.125 C 23.910156 -9.28125 23.6875 -9.445312 23.46875 -9.625 L 8.3125 -23.078125 C 7.445312 -23.816406 7.015625 -24.597656 7.015625 -25.421875 C 7.015625 -26.242188 7.445312 -27.019531 8.3125 -27.75 L 23.46875 -41.203125 C 23.6875 -41.421875 23.910156 -41.59375 24.140625 -41.71875 C 24.378906 -41.851562 24.675781 -41.921875 25.03125 -41.921875 L 34.0625 -41.921875 C 34.582031 -41.921875 34.84375 -41.640625 34.84375 -41.078125 C 34.84375 -40.816406 34.710938 -40.554688 34.453125 -40.296875 L 17.609375 -25.421875 L 34.453125 -10.53125 C 34.710938 -10.269531 34.84375 -10.007812 34.84375 -9.75 Z M 34.84375 -9.75 "/></g></g></g><g fill="#e1a730" fill-opacity="1"><g transform="translate(79.959067, 203.625647)"><g><path d="M 25.421875 -47.25 C 25.421875 -47.207031 25.40625 -47.175781 25.375 -47.15625 C 25.351562 -47.132812 25.34375 -47.082031 25.34375 -47 L 11.640625 -1.359375 C 11.546875 -1.015625 11.390625 -0.703125 11.171875 -0.421875 C 10.960938 -0.140625 10.679688 0 10.328125 0 L 2.078125 0 C 1.773438 0 1.492188 -0.109375 1.234375 -0.328125 C 0.972656 -0.546875 0.84375 -0.804688 0.84375 -1.109375 C 0.84375 -1.148438 0.851562 -1.191406 0.875 -1.234375 C 0.894531 -1.273438 0.90625 -1.316406 0.90625 -1.359375 L 14.6875 -47 C 14.769531 -47.34375 14.921875 -47.644531 15.140625 -47.90625 C 15.359375 -48.164062 15.640625 -48.296875 15.984375 -48.296875 L 24.25 -48.296875 C 24.550781 -48.296875 24.820312 -48.195312 25.0625 -48 C 25.300781 -47.800781 25.421875 -47.550781 25.421875 -47.25 Z M 25.421875 -47.25 "/></g></g></g><g fill="#ffffff" fill-opacity="1"><g transform="translate(106.28906, 203.625647)"><g><path d="M 35.484375 -13.65625 C 35.484375 -11.914062 35.171875 -10.210938 34.546875 -8.546875 C 33.921875 -6.878906 32.925781 -5.351562 31.5625 -3.96875 C 30.195312 -2.582031 28.375 -1.476562 26.09375 -0.65625 C 23.820312 0.164062 21.039062 0.578125 17.75 0.578125 C 15.1875 0.578125 12.910156 0.445312 10.921875 0.1875 C 8.929688 -0.0625 7.109375 -0.40625 5.453125 -0.84375 C 5.148438 -0.925781 4.859375 -1.078125 4.578125 -1.296875 C 4.296875 -1.515625 4.15625 -1.796875 4.15625 -2.140625 L 4.15625 -8.515625 C 4.15625 -9.335938 4.546875 -9.75 5.328125 -9.75 C 5.367188 -9.75 5.398438 -9.75 5.421875 -9.75 C 5.441406 -9.75 5.476562 -9.75 5.53125 -9.75 C 6.175781 -9.707031 7.0625 -9.628906 8.1875 -9.515625 C 9.3125 -9.410156 10.503906 -9.328125 11.765625 -9.265625 C 13.023438 -9.203125 14.195312 -9.132812 15.28125 -9.0625 C 16.363281 -9 17.226562 -8.96875 17.875 -8.96875 C 20.125 -8.96875 21.648438 -9.335938 22.453125 -10.078125 C 23.253906 -10.816406 23.65625 -11.960938 23.65625 -13.515625 C 23.65625 -14.472656 23.363281 -15.285156 22.78125 -15.953125 C 22.195312 -16.628906 21.0625 -17.460938 19.375 -18.453125 L 10.40625 -23.796875 C 7.363281 -25.566406 5.320312 -27.476562 4.28125 -29.53125 C 3.25 -31.59375 2.734375 -33.816406 2.734375 -36.203125 C 2.734375 -38.585938 3.238281 -40.734375 4.25 -42.640625 C 5.269531 -44.546875 6.992188 -46.0625 9.421875 -47.1875 C 11.847656 -48.3125 15.164062 -48.875 19.375 -48.875 C 20.976562 -48.875 22.6875 -48.796875 24.5 -48.640625 C 26.320312 -48.492188 28.015625 -48.3125 29.578125 -48.09375 C 31.140625 -47.882812 32.332031 -47.671875 33.15625 -47.453125 C 33.414062 -47.410156 33.640625 -47.289062 33.828125 -47.09375 C 34.023438 -46.894531 34.125 -46.625 34.125 -46.28125 L 34.125 -39.71875 C 34.125 -39.414062 34.046875 -39.15625 33.890625 -38.9375 C 33.742188 -38.71875 33.453125 -38.609375 33.015625 -38.609375 C 33.015625 -38.609375 33.003906 -38.609375 32.984375 -38.609375 C 32.960938 -38.609375 32.929688 -38.609375 32.890625 -38.609375 C 32.453125 -38.648438 31.691406 -38.703125 30.609375 -38.765625 C 29.523438 -38.835938 28.3125 -38.914062 26.96875 -39 C 25.625 -39.082031 24.257812 -39.15625 22.875 -39.21875 C 21.488281 -39.289062 20.234375 -39.328125 19.109375 -39.328125 C 17.242188 -39.328125 15.929688 -39.046875 15.171875 -38.484375 C 14.421875 -37.921875 14.046875 -37.050781 14.046875 -35.875 C 14.046875 -34.96875 14.335938 -34.222656 14.921875 -33.640625 C 15.503906 -33.054688 16.660156 -32.285156 18.390625 -31.328125 L 26.71875 -26.84375 C 30.09375 -25.019531 32.394531 -23.023438 33.625 -20.859375 C 34.863281 -18.691406 35.484375 -16.289062 35.484375 -13.65625 Z M 35.484375 -13.65625 "/></g></g></g><g fill="#ffffff" fill-opacity="1"><g transform="translate(144.504496, 203.625647)"><g><path d="M 34.0625 -1.625 C 34.0625 -0.84375 33.628906 -0.390625 32.765625 -0.265625 C 31.628906 -0.0859375 30.117188 0.09375 28.234375 0.28125 C 26.359375 0.476562 23.664062 0.578125 20.15625 0.578125 C 18.070312 0.578125 16.078125 0.394531 14.171875 0.03125 C 12.265625 -0.332031 10.570312 -1 9.09375 -1.96875 C 7.625 -2.945312 6.46875 -4.359375 5.625 -6.203125 C 4.78125 -8.046875 4.359375 -10.441406 4.359375 -13.390625 L 4.359375 -34.96875 C 4.359375 -37.914062 4.78125 -40.3125 5.625 -42.15625 C 6.46875 -44 7.632812 -45.40625 9.125 -46.375 C 10.625 -47.351562 12.328125 -48.015625 14.234375 -48.359375 C 16.140625 -48.703125 18.132812 -48.875 20.21875 -48.875 C 23.726562 -48.875 26.410156 -48.773438 28.265625 -48.578125 C 30.128906 -48.390625 31.628906 -48.207031 32.765625 -48.03125 C 33.628906 -47.90625 34.0625 -47.472656 34.0625 -46.734375 L 34.0625 -40.6875 C 34.0625 -40.34375 33.929688 -40.039062 33.671875 -39.78125 C 33.410156 -39.519531 33.109375 -39.390625 32.765625 -39.390625 L 19.5625 -39.390625 C 18.050781 -39.390625 16.976562 -39.070312 16.34375 -38.4375 C 15.71875 -37.8125 15.40625 -36.65625 15.40625 -34.96875 L 15.40625 -29.0625 L 32.234375 -29.0625 C 32.585938 -29.0625 32.894531 -28.929688 33.15625 -28.671875 C 33.414062 -28.410156 33.546875 -28.101562 33.546875 -27.75 L 33.546875 -21.578125 C 33.546875 -21.234375 33.414062 -20.929688 33.15625 -20.671875 C 32.894531 -20.410156 32.585938 -20.28125 32.234375 -20.28125 L 15.40625 -20.28125 L 15.40625 -13.390625 C 15.40625 -11.703125 15.71875 -10.539062 16.34375 -9.90625 C 16.976562 -9.28125 18.050781 -8.96875 19.5625 -8.96875 L 32.765625 -8.96875 C 33.109375 -8.96875 33.410156 -8.835938 33.671875 -8.578125 C 33.929688 -8.316406 34.0625 -8.015625 34.0625 -7.671875 Z M 34.0625 -1.625 "/></g></g></g><g fill="#ffffff" fill-opacity="1"><g transform="translate(182.199993, 203.625647)"><g><path d="M 32.3125 -1.625 C 32.3125 -0.882812 31.875 -0.429688 31 -0.265625 C 30.3125 -0.128906 29.347656 0 28.109375 0.125 C 26.878906 0.257812 25.582031 0.367188 24.21875 0.453125 C 22.851562 0.535156 21.582031 0.578125 20.40625 0.578125 C 18.332031 0.578125 16.335938 0.394531 14.421875 0.03125 C 12.515625 -0.332031 10.8125 -1 9.3125 -1.96875 C 7.820312 -2.945312 6.65625 -4.359375 5.8125 -6.203125 C 4.96875 -8.046875 4.546875 -10.441406 4.546875 -13.390625 L 4.546875 -47 C 4.546875 -47.34375 4.675781 -47.644531 4.9375 -47.90625 C 5.195312 -48.164062 5.5 -48.296875 5.84375 -48.296875 L 14.359375 -48.296875 C 14.710938 -48.296875 15.019531 -48.164062 15.28125 -47.90625 C 15.539062 -47.644531 15.671875 -47.34375 15.671875 -47 L 15.671875 -13.390625 C 15.671875 -11.703125 15.984375 -10.539062 16.609375 -9.90625 C 17.234375 -9.28125 18.304688 -8.96875 19.828125 -8.96875 L 31 -8.96875 C 31.351562 -8.96875 31.660156 -8.835938 31.921875 -8.578125 C 32.179688 -8.316406 32.3125 -8.015625 32.3125 -7.671875 Z M 32.3125 -1.625 "/></g></g></g><g fill="#ffffff" fill-opacity="1"><g transform="translate(215.930971, 203.625647)"><g><path d="M 32.3125 -1.625 C 32.3125 -0.882812 31.875 -0.429688 31 -0.265625 C 30.3125 -0.128906 29.347656 0 28.109375 0.125 C 26.878906 0.257812 25.582031 0.367188 24.21875 0.453125 C 22.851562 0.535156 21.582031 0.578125 20.40625 0.578125 C 18.332031 0.578125 16.335938 0.394531 14.421875 0.03125 C 12.515625 -0.332031 10.8125 -1 9.3125 -1.96875 C 7.820312 -2.945312 6.65625 -4.359375 5.8125 -6.203125 C 4.96875 -8.046875 4.546875 -10.441406 4.546875 -13.390625 L 4.546875 -47 C 4.546875 -47.34375 4.675781 -47.644531 4.9375 -47.90625 C 5.195312 -48.164062 5.5 -48.296875 5.84375 -48.296875 L 14.359375 -48.296875 C 14.710938 -48.296875 15.019531 -48.164062 15.28125 -47.90625 C 15.539062 -47.644531 15.671875 -47.34375 15.671875 -47 L 15.671875 -13.390625 C 15.671875 -11.703125 15.984375 -10.539062 16.609375 -9.90625 C 17.234375 -9.28125 18.304688 -8.96875 19.828125 -8.96875 L 31 -8.96875 C 31.351562 -8.96875 31.660156 -8.835938 31.921875 -8.578125 C 32.179688 -8.316406 32.3125 -8.015625 32.3125 -7.671875 Z M 32.3125 -1.625 "/></g></g></g><g fill="#ffffff" fill-opacity="1"><g transform="translate(249.661949, 203.625647)"><g><path d="M 41.921875 -20.28125 C 41.921875 -15.25 41.066406 -11.207031 39.359375 -8.15625 C 37.648438 -5.101562 35.34375 -2.882812 32.4375 -1.5 C 29.53125 -0.113281 26.28125 0.578125 22.6875 0.578125 C 19.132812 0.578125 15.894531 -0.113281 12.96875 -1.5 C 10.039062 -2.882812 7.71875 -5.101562 6 -8.15625 C 4.289062 -11.207031 3.4375 -15.25 3.4375 -20.28125 L 3.4375 -28.015625 C 3.4375 -33.046875 4.289062 -37.085938 6 -40.140625 C 7.71875 -43.191406 10.039062 -45.410156 12.96875 -46.796875 C 15.894531 -48.179688 19.132812 -48.875 22.6875 -48.875 C 26.28125 -48.875 29.53125 -48.179688 32.4375 -46.796875 C 35.34375 -45.410156 37.648438 -43.191406 39.359375 -40.140625 C 41.066406 -37.085938 41.921875 -33.046875 41.921875 -28.015625 Z M 30.75 -20.28125 L 30.75 -28.015625 C 30.75 -31.910156 30.085938 -34.734375 28.765625 -36.484375 C 27.441406 -38.242188 25.414062 -39.125 22.6875 -39.125 C 19.957031 -39.125 17.941406 -38.242188 16.640625 -36.484375 C 15.335938 -34.734375 14.6875 -31.910156 14.6875 -28.015625 L 14.6875 -20.28125 C 14.6875 -16.382812 15.335938 -13.554688 16.640625 -11.796875 C 17.941406 -10.046875 19.957031 -9.171875 22.6875 -9.171875 C 25.414062 -9.171875 27.441406 -10.046875 28.765625 -11.796875 C 30.085938 -13.554688 30.75 -16.382812 30.75 -20.28125 Z M 30.75 -20.28125 "/></g></g></g><g fill="#e1a730" fill-opacity="1"><g transform="translate(295.031235, 203.625647)"><g><path d="M 34.84375 -25.421875 C 34.84375 -24.640625 34.382812 -23.859375 33.46875 -23.078125 L 18.390625 -9.625 C 18.171875 -9.445312 17.941406 -9.28125 17.703125 -9.125 C 17.472656 -8.976562 17.179688 -8.90625 16.828125 -8.90625 L 7.796875 -8.90625 C 7.273438 -8.90625 7.015625 -9.1875 7.015625 -9.75 C 7.015625 -10.007812 7.144531 -10.269531 7.40625 -10.53125 L 24.25 -25.421875 L 7.40625 -40.296875 C 7.144531 -40.554688 7.015625 -40.816406 7.015625 -41.078125 C 7.015625 -41.640625 7.273438 -41.921875 7.796875 -41.921875 L 16.828125 -41.921875 C 17.179688 -41.921875 17.472656 -41.851562 17.703125 -41.71875 C 17.941406 -41.59375 18.171875 -41.421875 18.390625 -41.203125 L 33.46875 -27.75 C 34.382812 -26.96875 34.84375 -26.191406 34.84375 -25.421875 Z M 34.84375 -25.421875 "/></g></g></g></svg>